<svg width="120" height="44" viewBox="0 0 120 44" fill="none" xmlns="http://www.w3.org/2000/svg">
<path d="M11.875 21.1523C11.6667 21.1523 11.4648 21.1914 11.2695 21.2695C11.0872 21.3477 10.9049 21.4714 10.7227 21.6406L7.87109 23.9258C7.75391 24.0299 7.64974 24.1927 7.55859 24.4141C7.48047 24.6224 7.44141 24.8438 7.44141 25.0781V29.3555C7.44141 29.6159 7.48047 29.8503 7.55859 30.0586C7.63672 30.2669 7.7474 30.4232 7.89062 30.5273L10.7227 32.832C10.918 32.9883 11.1133 33.112 11.3086 33.2031C11.5039 33.2812 11.6927 33.3203 11.875 33.3203H14.4727C14.668 33.3203 14.8503 33.2878 15.0195 33.2227C15.1888 33.1576 15.3906 33.0339 15.625 32.8516L16.7578 31.9531C16.888 31.849 16.9987 31.6862 17.0898 31.4648C17.194 31.2435 17.2461 31.0221 17.2461 30.8008V23.6328C17.2461 23.4375 17.194 23.2292 17.0898 23.0078C16.9987 22.7865 16.888 22.6237 16.7578 22.5195L15.6445 21.6406C15.4232 21.4453 15.2279 21.3151 15.0586 21.25C14.8893 21.1849 14.694 21.1523 14.4727 21.1523H11.875ZM7.44141 12.6367V20.0391L8.67188 18.9648C9.10156 18.6003 9.59635 18.3138 10.1562 18.1055C10.7292 17.8971 11.3021 17.793 11.875 17.793H14.4727C15.0716 17.793 15.6445 17.8906 16.1914 18.0859C16.7383 18.2812 17.2461 18.5742 17.7148 18.9648L18.8477 19.8438C19.3555 20.2344 19.7786 20.7812 20.1172 21.4844C20.4688 22.1875 20.6445 22.8646 20.6445 23.5156V30.8008C20.6445 31.5039 20.4753 32.2135 20.1367 32.9297C19.7982 33.6458 19.3685 34.2188 18.8477 34.6484L17.7148 35.5273C17.2331 35.9049 16.7188 36.1914 16.1719 36.3867C15.638 36.582 15.0716 36.6797 14.4727 36.6797H11.875C11.3021 36.6797 10.7292 36.5755 10.1562 36.3672C9.59635 36.1719 9.10156 35.8919 8.67188 35.5273L7.44141 34.4336V34.8047C7.44141 35.3646 7.28516 35.8138 6.97266 36.1523C6.66016 36.5039 6.25651 36.6797 5.76172 36.6797C5.26693 36.6797 4.86328 36.5039 4.55078 36.1523C4.23828 35.8008 4.08203 35.3516 4.08203 34.8047V12.6367C4.08203 12.0638 4.23177 11.6081 4.53125 11.2695C4.84375 10.931 5.25391 10.7617 5.76172 10.7617C6.24349 10.7617 6.64062 10.9375 6.95312 11.2891C7.27865 11.6406 7.44141 12.0898 7.44141 12.6367ZM24.968 19.6484V21.8359L29.8898 33.0859L34.8117 21.8359V19.6484C34.8117 19.1016 34.968 18.6589 35.2805 18.3203C35.593 17.9688 35.9966 17.793 36.4914 17.793C36.9862 17.793 37.3898 17.9622 37.7023 18.3008C38.0148 18.6393 38.1711 19.0885 38.1711 19.6484V22.1289C38.1711 22.2982 38.1516 22.4609 38.1125 22.6172C38.0734 22.7734 38.0148 22.9362 37.9367 23.1055L32.6437 35.2344C32.3964 35.7943 32.1424 36.1719 31.882 36.3672C31.6216 36.5755 31.3026 36.6797 30.925 36.6797H28.8547C28.4641 36.6797 28.1451 36.582 27.8977 36.3867C27.6503 36.1914 27.3964 35.8073 27.1359 35.2344L21.843 23.125C21.7518 22.9297 21.6867 22.7604 21.6477 22.6172C21.6216 22.474 21.6086 22.3112 21.6086 22.1289V19.6484C21.6086 19.0755 21.7583 18.6263 22.0578 18.3008C22.3703 17.9622 22.7805 17.793 23.2883 17.793C23.7831 17.793 24.1867 17.9688 24.4992 18.3203C24.8117 18.6589 24.968 19.1016 24.968 19.6484ZM42.4945 19.6484V21.4062L45.2875 18.9648C45.7042 18.6003 46.199 18.3138 46.7719 18.1055C47.3578 17.8971 47.9307 17.793 48.4906 17.793H50.6977C52.0648 17.793 53.2367 18.2812 54.2133 19.2578C55.2029 20.2344 55.6977 21.3997 55.6977 22.7539V23.5156C55.6977 24.0755 55.5414 24.5312 55.2289 24.8828C54.9164 25.2214 54.5128 25.3906 54.018 25.3906C53.5232 25.3906 53.1195 25.2148 52.807 24.8633C52.4945 24.5117 52.3383 24.0625 52.3383 23.5156V22.7539C52.3383 22.3242 52.1755 21.9466 51.85 21.6211C51.5245 21.2826 51.1404 21.1133 50.6977 21.1133H48.4906C48.3083 21.1133 48.0935 21.1654 47.8461 21.2695C47.6117 21.3607 47.4294 21.4714 47.2992 21.6016L42.4945 25.8398V34.8047C42.4945 35.3646 42.3383 35.8138 42.0258 36.1523C41.7133 36.5039 41.3096 36.6797 40.8148 36.6797C40.3201 36.6797 39.9164 36.5039 39.6039 36.1523C39.2914 35.8008 39.1352 35.3516 39.1352 34.8047V19.6484C39.1352 19.0755 39.2849 18.6263 39.5844 18.3008C39.8969 17.9622 40.307 17.793 40.8148 17.793C41.3096 17.793 41.7133 17.9688 42.0258 18.3203C42.3383 18.6589 42.4945 19.1016 42.4945 19.6484ZM62.775 21.1523C62.4234 21.1523 62.0589 21.3021 61.6813 21.6016C61.6552 21.6146 61.6357 21.6276 61.6227 21.6406L60.5094 22.5195C60.3661 22.6367 60.249 22.7995 60.1578 23.0078C60.0667 23.2161 60.0211 23.4245 60.0211 23.6328V30.8008C60.0211 31.0221 60.0667 31.2435 60.1578 31.4648C60.249 31.6862 60.3661 31.849 60.5094 31.9531L61.6227 32.832C61.6357 32.8451 61.6487 32.8581 61.6617 32.8711C62.0523 33.1706 62.4234 33.3203 62.775 33.3203H65.3727C65.568 33.3203 65.7568 33.2812 65.9391 33.2031C66.1344 33.125 66.3362 33.0013 66.5445 32.832L69.3766 30.5273C69.5068 30.4232 69.6109 30.2604 69.6891 30.0391C69.7802 29.8177 69.8258 29.5898 69.8258 29.3555V25.0781C69.8258 24.8438 69.7802 24.6224 69.6891 24.4141C69.6109 24.1927 69.5068 24.0299 69.3766 23.9258L66.5445 21.6406C66.3492 21.4714 66.1604 21.3477 65.9781 21.2695C65.7958 21.1914 65.594 21.1523 65.3727 21.1523H62.775ZM73.2242 12.6367V34.8047C73.2242 35.3516 73.0615 35.8008 72.7359 36.1523C72.4104 36.5039 72.0003 36.6797 71.5055 36.6797C70.9977 36.6797 70.5875 36.5104 70.275 36.1719C69.9755 35.8333 69.8258 35.3776 69.8258 34.8047V34.4336L68.5758 35.5273C68.1591 35.8919 67.6643 36.1719 67.0914 36.3672C66.5315 36.5755 65.9586 36.6797 65.3727 36.6797H62.775C62.2021 36.6797 61.6422 36.582 61.0953 36.3867C60.5615 36.1914 60.0536 35.9049 59.5719 35.5273L58.4195 34.6484C57.8727 34.2188 57.4365 33.6589 57.1109 32.9688C56.7854 32.2656 56.6227 31.543 56.6227 30.8008V23.5156C56.6227 22.8646 56.7919 22.1875 57.1305 21.4844C57.482 20.7812 57.9117 20.2344 58.4195 19.8438L59.5719 18.9648C60.0667 18.5742 60.5745 18.2812 61.0953 18.0859C61.6292 17.8906 62.1891 17.793 62.775 17.793H65.3727C65.9586 17.793 66.5315 17.8971 67.0914 18.1055C67.6643 18.3138 68.1591 18.6003 68.5758 18.9648L69.8258 20.0391V12.6367C69.8258 12.0898 69.982 11.6406 70.2945 11.2891C70.607 10.9375 71.0107 10.7617 71.5055 10.7617C72.0003 10.7617 72.4104 10.9375 72.7359 11.2891C73.0615 11.6276 73.2242 12.0768 73.2242 12.6367ZM77.5477 19.6484V21.8359L81.9422 31.875H82.9773L87.3914 21.8359V19.6484C87.3914 19.1016 87.5477 18.6589 87.8602 18.3203C88.1727 17.9688 88.5763 17.793 89.0711 17.793C89.5659 17.793 89.9695 17.9622 90.282 18.3008C90.5945 18.6393 90.7508 19.0885 90.7508 19.6484V22.1289C90.7508 22.2721 90.7312 22.4154 90.6922 22.5586C90.6661 22.7018 90.601 22.8906 90.4969 23.125L81.9031 42.8906C81.7859 43.112 81.5711 43.3008 81.2586 43.457C80.9461 43.6263 80.601 43.7109 80.2234 43.7109H76.0242C75.4643 43.7109 75.0151 43.5547 74.6766 43.2422C74.351 42.9427 74.1883 42.5391 74.1883 42.0312C74.1883 41.5495 74.3575 41.1458 74.6961 40.8203C75.0346 40.5078 75.4773 40.3516 76.0242 40.3516H79.3445L81.5516 35.2734H80.9852C80.5945 35.2734 80.2495 35.1953 79.95 35.0391C79.6505 34.8958 79.4487 34.694 79.3445 34.4336L74.4227 23.125C74.3315 22.9297 74.2664 22.7604 74.2273 22.6172C74.2013 22.474 74.1883 22.3112 74.1883 22.1289V19.6484C74.1883 19.0755 74.338 18.6263 74.6375 18.3008C74.95 17.9622 75.3602 17.793 75.868 17.793C76.3628 17.793 76.7664 17.9688 77.0789 18.3203C77.3914 18.6589 77.5477 19.1016 77.5477 19.6484ZM95.1523 18.5156L100.035 24.3945L104.801 18.5156C104.983 18.2812 105.198 18.1055 105.445 17.9883C105.706 17.8581 105.966 17.793 106.227 17.793C106.682 17.793 107.066 17.9557 107.379 18.2812C107.704 18.6068 107.867 18.9909 107.867 19.4336C107.867 19.6549 107.828 19.8698 107.75 20.0781C107.672 20.2734 107.555 20.4753 107.398 20.6836L102.184 26.9922L107.75 33.8086C107.919 33.9909 108.043 34.1797 108.121 34.375C108.199 34.5573 108.238 34.7656 108.238 35C108.238 35.4557 108.076 35.8398 107.75 36.1523C107.438 36.4779 107.053 36.6406 106.598 36.6406C106.337 36.6406 106.077 36.5755 105.816 36.4453C105.556 36.3151 105.335 36.1393 105.152 35.918L99.9961 29.6484L94.8008 35.918C94.5924 36.1654 94.3646 36.3477 94.1172 36.4648C93.8828 36.582 93.6289 36.6406 93.3555 36.6406C92.8867 36.6406 92.4961 36.4844 92.1836 36.1719C91.8711 35.8724 91.7148 35.4948 91.7148 35.0391C91.7148 34.8177 91.7539 34.6029 91.832 34.3945C91.9232 34.1732 92.0404 33.9779 92.1836 33.8086L97.8281 27.0312L92.5547 20.6836C92.3854 20.4753 92.2617 20.2669 92.1836 20.0586C92.1055 19.8372 92.0664 19.5898 92.0664 19.3164C92.0664 18.9388 92.2292 18.5938 92.5547 18.2812C92.8932 17.9557 93.2643 17.793 93.668 17.793C93.9544 17.793 94.2214 17.8581 94.4688 17.9883C94.7292 18.1055 94.957 18.2812 95.1523 18.5156Z" fill="#E2E1DF"/>
<rect x="116" y="27" width="4" height="4" rx="1" fill="#2195D8"/>
</svg>
